<svg width="49" height="50" viewBox="0 0 49 50" fill="none" xmlns="http://www.w3.org/2000/svg">
<mask id="path-1-inside-1_2_3596" fill="white">
<path d="M48.6761 27.8062C49.3098 22.7352 48.3263 17.5936 45.8658 13.1145C43.4053 8.63539 39.5935 5.04747 34.9738 2.86232C30.3541 0.677166 25.1624 0.00635958 20.139 0.945544C15.1156 1.88473 10.517 4.38595 6.99883 8.09258C3.48067 11.7992 1.22261 16.522 0.546604 21.5875C-0.129401 26.653 0.81117 31.8027 3.2342 36.3021C5.65724 40.8016 9.43902 44.4212 14.0403 46.6449C18.6416 48.8685 23.8275 49.5826 28.8586 48.6853L28.75 48.0767C23.8472 48.951 18.7934 48.2551 14.3094 46.0882C9.82529 43.9212 6.13987 40.3938 3.77857 36.009C1.41728 31.6242 0.500673 26.6057 1.15945 21.6693C1.81823 16.7328 4.01876 12.1304 7.44728 8.51822C10.8758 4.90604 15.3572 2.46855 20.2526 1.5533C25.148 0.638042 30.2074 1.29176 34.7094 3.42123C39.2114 5.5507 42.9261 9.0472 45.3239 13.4122C47.7217 17.7772 48.6801 22.7878 48.0626 27.7295L48.6761 27.8062Z"/>
</mask>
<path d="M48.6761 27.8062C49.3098 22.7352 48.3263 17.5936 45.8658 13.1145C43.4053 8.63539 39.5935 5.04747 34.9738 2.86232C30.3541 0.677166 25.1624 0.00635958 20.139 0.945544C15.1156 1.88473 10.517 4.38595 6.99883 8.09258C3.48067 11.7992 1.22261 16.522 0.546604 21.5875C-0.129401 26.653 0.81117 31.8027 3.2342 36.3021C5.65724 40.8016 9.43902 44.4212 14.0403 46.6449C18.6416 48.8685 23.8275 49.5826 28.8586 48.6853L28.75 48.0767C23.8472 48.951 18.7934 48.2551 14.3094 46.0882C9.82529 43.9212 6.13987 40.3938 3.77857 36.009C1.41728 31.6242 0.500673 26.6057 1.15945 21.6693C1.81823 16.7328 4.01876 12.1304 7.44728 8.51822C10.8758 4.90604 15.3572 2.46855 20.2526 1.5533C25.148 0.638042 30.2074 1.29176 34.7094 3.42123C39.2114 5.5507 42.9261 9.0472 45.3239 13.4122C47.7217 17.7772 48.6801 22.7878 48.0626 27.7295L48.6761 27.8062Z" stroke="#FF834D" stroke-width="2" mask="url(#path-1-inside-1_2_3596)"/>
<path d="M33.7446 2.322C29.0111 0.395726 23.7903 0.013116 18.8265 1.22872C13.8628 2.44433 9.40953 5.19609 6.10178 9.09164C2.79404 12.9872 0.800661 17.8276 0.405883 22.9228C0.0111049 28.018 1.23508 33.1077 3.90329 37.4663C6.57149 41.8248 10.5477 45.2297 15.265 47.1954C19.9822 49.1611 25.1997 49.5873 30.1734 48.4131C35.1471 47.239 39.6231 44.5245 42.9633 40.6567C46.3034 36.7888 48.3371 31.9652 48.7744 26.8735L24.5984 24.7973L33.7446 2.322Z" fill="#FF834D"/>
</svg>
