<svg width="26" height="25" viewBox="0 0 26 25" fill="none" xmlns="http://www.w3.org/2000/svg">
<path d="M12.8205 8.80008C12.0654 8.80008 11.3273 9.02399 10.6994 9.44349C10.0716 9.863 9.58226 10.4593 9.2933 11.1569C9.00434 11.8545 8.92873 12.6221 9.07605 13.3627C9.22336 14.1033 9.58697 14.7835 10.1209 15.3175C10.6548 15.8514 11.3351 16.215 12.0757 16.3623C12.8162 16.5096 13.5839 16.434 14.2815 16.1451C14.9791 15.8561 15.5754 15.3668 15.9949 14.7389C16.4144 14.1111 16.6383 13.373 16.6383 12.6179C16.6371 11.6057 16.2345 10.6353 15.5188 9.9196C14.803 9.20389 13.8327 8.80127 12.8205 8.80008ZM12.8205 14.9086C12.3674 14.9086 11.9245 14.7742 11.5478 14.5225C11.1711 14.2708 10.8775 13.913 10.7042 13.4945C10.5308 13.0759 10.4854 12.6153 10.5738 12.171C10.6622 11.7266 10.8804 11.3185 11.2007 10.9981C11.5211 10.6778 11.9292 10.4596 12.3736 10.3712C12.8179 10.2828 13.2785 10.3282 13.6971 10.5016C14.1157 10.6749 14.4734 10.9685 14.7251 11.3452C14.9768 11.7219 15.1112 12.1648 15.1112 12.6179C15.1105 13.2252 14.8689 13.8075 14.4395 14.2369C14.0101 14.6663 13.4278 14.9079 12.8205 14.9086Z" fill="#FF5B5B"/>
<path d="M5.39357 7.87055C5.01811 7.7295 4.6025 7.74002 4.23466 7.89991C3.86682 8.05979 3.57561 8.35649 3.42261 8.72725C3.26962 9.09801 3.26685 9.51374 3.4149 9.8865C3.56294 10.2593 3.85018 10.5598 4.21585 10.7246C4.58786 10.8819 4.90527 11.1454 5.12842 11.4821C5.35157 11.8188 5.47058 12.2137 5.47058 12.6176C5.47058 13.0216 5.35157 13.4165 5.12842 13.7532C4.90527 14.0899 4.58786 14.3534 4.21585 14.5107C3.85009 14.6755 3.56278 14.9761 3.41472 15.3489C3.26666 15.7218 3.26946 16.1376 3.42253 16.5084C3.57561 16.8792 3.86694 17.1759 4.23489 17.3357C4.60285 17.4956 5.01854 17.506 5.39403 17.3647C5.76872 17.2121 6.1801 17.1735 6.57665 17.2537C6.97321 17.3338 7.33729 17.5292 7.62329 17.8154C7.9093 18.1015 8.10451 18.4657 8.18448 18.8623C8.26444 19.2589 8.2256 19.6702 8.07283 20.0448C7.9272 20.4213 7.93623 20.8401 8.09797 21.2099C8.25972 21.5797 8.56105 21.8707 8.93634 22.0193C9.12428 22.0971 9.32569 22.1371 9.52909 22.1371C9.82623 22.1392 10.1174 22.0536 10.366 21.8909C10.6147 21.7282 10.8098 21.4957 10.9269 21.2225C11.0842 20.8505 11.3477 20.5331 11.6844 20.31C12.021 20.0868 12.416 19.9678 12.8199 19.9678C13.2238 19.9678 13.6188 20.0868 13.9555 20.31C14.2922 20.5331 14.5556 20.8505 14.713 21.2225C14.8777 21.5883 15.1784 21.8756 15.5512 22.0237C15.924 22.1717 16.3399 22.1689 16.7107 22.0159C17.0815 21.8628 17.3782 21.5715 17.538 21.2035C17.6978 20.8356 17.7082 20.4199 17.567 20.0444C17.4144 19.6697 17.3758 19.2583 17.4559 18.8617C17.5361 18.4652 17.7315 18.1011 18.0176 17.8151C18.3038 17.5291 18.6679 17.3339 19.0645 17.2539C19.4611 17.174 19.8725 17.2128 20.2471 17.3656C20.6212 17.5108 21.0375 17.503 21.4059 17.3439C21.7743 17.1848 22.0653 16.8871 22.216 16.5151L21.5158 16.2109L20.821 15.9507C20.1684 15.6841 19.4515 15.6164 18.7606 15.7561C18.0696 15.8958 17.4354 16.2367 16.9376 16.7359C16.4402 17.2373 16.0985 17.8718 15.9536 18.563C15.8087 19.2543 15.8669 19.9726 16.1211 20.6316C15.8487 19.9812 15.3899 19.4261 14.8025 19.0362C14.2151 18.6462 13.5255 18.4389 12.8204 18.4404C12.1138 18.4426 11.423 18.6495 10.8316 19.0361C10.2402 19.4227 9.7735 19.9725 9.48801 20.6188C9.75444 19.9662 9.82206 19.2494 9.68236 18.5584C9.54266 17.8675 9.20188 17.2333 8.70284 16.7354C8.20141 16.2381 7.56685 15.8964 6.87565 15.7515C6.18444 15.6067 5.46609 15.6648 4.80715 15.9189C5.45744 15.6464 6.0125 15.1875 6.40237 14.6001C6.79223 14.0126 6.99945 13.3229 6.99789 12.6178C6.9957 11.9113 6.78877 11.2205 6.40215 10.629C6.01553 10.0376 5.46579 9.57092 4.81945 9.28543C5.47204 9.55203 6.18889 9.61973 6.87986 9.48003C7.57083 9.34032 8.20507 8.99945 8.70284 8.50026C9.20022 7.99887 9.54195 7.36432 9.68683 6.67309C9.83172 5.98187 9.77356 5.2635 9.51939 4.60458C9.79184 5.25486 10.2507 5.80992 10.8382 6.19979C11.4256 6.58966 12.1154 6.79687 12.8204 6.79531C13.527 6.79312 14.2178 6.58619 14.8092 6.19957C15.4006 5.81295 15.8673 5.26321 16.1528 4.61687C15.8864 5.2695 15.8188 5.9863 15.9585 6.67724C16.0982 7.36817 16.4389 8.00241 16.938 8.50026C17.4395 8.99739 18.0741 9.33894 18.7653 9.48381C19.4564 9.62868 20.1747 9.57069 20.8337 9.31681C20.1865 9.58869 19.6337 10.045 19.2442 10.6289C18.8546 11.2129 18.6455 11.8985 18.643 12.6004C18.6404 13.3024 18.8445 13.9895 19.2299 14.5763C19.6152 15.163 20.1647 15.6233 20.8098 15.8998C20.812 15.9061 20.812 15.9129 20.8098 15.9192L21.5156 16.2105L22.2172 16.5113L22.2214 16.5016C22.3772 16.1318 22.3811 15.7155 22.232 15.343C22.0829 14.9704 21.7929 14.6716 21.425 14.5115C21.053 14.3541 20.7356 14.0907 20.5124 13.754C20.2893 13.4173 20.1702 13.0223 20.1702 12.6184C20.1702 12.2145 20.2893 11.8195 20.5124 11.4828C20.7356 11.1462 21.053 10.8827 21.425 10.7254C21.7907 10.5606 22.078 10.26 22.2261 9.88714C22.3742 9.51429 22.3714 9.09848 22.2183 8.72767C22.0652 8.35685 21.7739 8.06015 21.4059 7.90032C21.038 7.7405 20.6223 7.73009 20.2468 7.87132C19.8721 8.02391 19.4607 8.06255 19.0642 7.9824C18.6676 7.90224 18.3035 7.70685 18.0175 7.42071C17.7315 7.13456 17.5363 6.77039 17.4564 6.3738C17.3764 5.97721 17.4152 5.56584 17.568 5.19122C17.7092 4.81576 17.6987 4.40009 17.5389 4.03219C17.379 3.66428 17.0823 3.37299 16.7116 3.21995C16.3408 3.06692 15.925 3.06413 15.5522 3.21219C15.1794 3.36025 14.8788 3.64754 14.714 4.01328C14.5567 4.38529 14.2932 4.70269 13.9565 4.92584C13.6199 5.149 13.2249 5.26801 12.821 5.26801C12.4171 5.26801 12.0221 5.149 11.6854 4.92584C11.3487 4.70269 11.0853 4.38529 10.9279 4.01328C10.7632 3.64751 10.4626 3.3602 10.0897 3.21214C9.71687 3.06408 9.30105 3.06688 8.93024 3.21996C8.55943 3.37303 8.26272 3.66437 8.1029 4.03232C7.94307 4.40027 7.93267 4.81597 8.07389 5.19145C8.22649 5.56614 8.26513 5.97753 8.18497 6.37408C8.10482 6.77063 7.90943 7.13471 7.62328 7.42072C7.33714 7.70672 6.97296 7.90194 6.57637 7.9819C6.17978 8.06186 5.76841 8.02303 5.3938 7.87025L5.39357 7.87055Z" fill="#FF5B5B"/>
</svg>
